<?xml version="1.0" encoding="utf-8"?>
<!-- Generator: Adobe Illustrator 22.1.0, SVG Export Plug-In . SVG Version: 6.00 Build 0)  -->
<svg version="1.1" id="Layer_1" xmlns="http://www.w3.org/2000/svg" xmlns:xlink="http://www.w3.org/1999/xlink" x="0px" y="0px"
	 viewBox="0 0 171.2 171.2" style="enable-background:new 0 0 171.2 171.2;" xml:space="preserve">
<style type="text/css">
	.st0{fill:#FFFFFF;}
	.st1{fill:#2F67B2;}
</style>
<path id="XMLID_9_" class="st0" d="M171.1,85.4c0,47.3-38.3,85.6-85.6,85.6c-47.3,0-85.6-38.3-85.6-85.6S38.2-0.2,85.5-0.2
	C132.8-0.2,171.1,38.1,171.1,85.4"/>
<g>
	<polygon class="st1" points="50.6,135.2 53.2,143.2 61.7,143.2 54.9,148.2 57.5,156.3 50.6,151.3 43.7,156.3 46.4,148.2 
		39.5,143.2 48,143.2 	"/>
	<polygon class="st1" points="26,39.4 28.6,47.5 37.1,47.5 30.2,52.5 32.8,60.6 26,55.6 19.1,60.6 21.7,52.5 14.9,47.5 23.3,47.5 	
		"/>
	<polygon class="st1" points="50.5,14.4 53.2,22.5 61.7,22.5 54.8,27.5 57.4,35.6 50.5,30.6 43.7,35.6 46.3,27.5 39.4,22.5 
		47.9,22.5 	"/>
	<polygon class="st1" points="85.5,5 88.2,13.1 96.6,13.1 89.8,18.1 92.4,26.2 85.5,21.2 78.7,26.2 81.3,18.1 74.4,13.1 82.9,13.1 	
		"/>
	<polygon class="st1" points="120.1,14.5 122.7,22.6 131.2,22.6 124.4,27.6 127,35.6 120.1,30.6 113.2,35.6 115.9,27.6 109,22.6 
		117.5,22.6 	"/>
	<polygon class="st1" points="145.6,40 148.2,48 156.7,48 149.8,53 152.5,61.1 145.6,56.1 138.7,61.1 141.3,53 134.5,48 143,48 	"/>
	<polygon class="st1" points="155,74.9 157.6,83 166.1,83 159.3,88 161.9,96.1 155,91.1 148.1,96.1 150.8,88 143.9,83 152.4,83 	"/>
	<polygon class="st1" points="145.6,110 148.2,118.1 156.7,118.1 149.8,123.1 152.4,131.2 145.6,126.2 138.7,131.2 141.3,123.1 
		134.4,118.1 142.9,118.1 	"/>
	<polygon class="st1" points="120.1,135.3 122.7,143.4 131.2,143.4 124.3,148.4 127,156.5 120.1,151.5 113.2,156.5 115.8,148.4 
		109,143.4 117.5,143.4 	"/>
	<polygon class="st1" points="85.6,144.6 88.2,152.7 96.7,152.7 89.9,157.7 92.5,165.7 85.6,160.8 78.7,165.7 81.4,157.7 
		74.5,152.7 83,152.7 	"/>
	<polygon class="st1" points="25.7,109.9 28.3,117.9 36.8,117.9 29.9,122.9 32.5,131 25.7,126 18.8,131 21.4,122.9 14.5,117.9 
		23,117.9 	"/>
	<polygon class="st1" points="16.1,74.3 18.8,82.4 27.3,82.4 20.4,87.5 23,95.7 16.1,90.6 9.2,95.7 11.8,87.5 4.9,82.4 13.5,82.4 	
		"/>
</g>
<g>
	<path id="XMLID_8_" class="st1" d="M85.8,93.2c-7.6,0-13.9-2.6-18.9-7.8c-4.9-5.2-7.4-11.6-7.4-19.2c0-7.7,2.5-14,7.4-19.1
		c4.9-5.1,11.2-7.6,18.8-7.6c7.6,0,13.9,2.6,18.7,7.8c4.8,5.2,7.2,11.6,7.2,19.2c0,7.6-2.4,14-7.2,19C99.6,90.7,93.4,93.2,85.8,93.2
		"/>
	<path id="XMLID_7_" class="st1" d="M59.5,130.8c0-7.7,2.5-14,7.4-19.1c4.9-5.1,11.2-7.6,18.9-7.6c7.6,0,13.9,2.6,18.6,7.8
		c4.8,5.2,7.2,11.6,7.2,19.2"/>
</g>
</svg>
